<?xml version="1.0" encoding="utf-8"?>
<!-- Generator: Adobe Illustrator 22.1.0, SVG Export Plug-In . SVG Version: 6.00 Build 0)  -->
<svg version="1.1" id="Capa_1" xmlns="http://www.w3.org/2000/svg" xmlns:xlink="http://www.w3.org/1999/xlink" x="0px" y="0px"
	 viewBox="0 0 550 550" style="enable-background:new 0 0 550 550;" xml:space="preserve">
<style type="text/css">
	.st0{fill:#DD0BF4;}
</style>
<path id="Head" d="M412.5,140c-0.2,0-0.3-0.1-0.5-0.1c-0.1,0-0.3-0.1-0.4-0.1l-3.7-0.7l-0.7-3.7c-6.7-34.5-22.1-63.8-44.8-84.7
	c-22.6-20.8-50.7-31.7-81.4-31.7c-30.7,0-58.8,11-81.4,31.7c-22.6,20.8-38.1,50.1-44.9,84.7l-0.7,3.5l-3.6,0.9
	c-0.3,0.1-0.9,0.2-1.6,0.3c-18.8,5.1-28.5,29-22.1,54.6c4.8,18,16.2,32,29.8,36.7l2.7,0.9l0.8,2.8c9.3,30.7,25.4,59,45.2,79.9
	c22.5,23.7,48.7,36.2,75.7,36.2c27,0,53.2-12.5,75.7-36.2c19.9-20.8,35.9-49.2,45.2-79.9l0.8-2.8l2.7-0.9
	c13.6-4.7,25.2-19.1,29.6-36.5C441.5,169,431.6,144.9,412.5,140z M420.6,192.9c-4,15.9-14.4,25.4-22.7,26.5l-6.9,0.9l-1.8,6.7
	c-15,54.9-56.8,110.6-107.8,110.6S188.5,281.9,173.5,227l-1.8-6.7l-6.9-0.9c-8.2-1.2-18.7-10.5-22.7-26.5
	c-4.6-16.8,0.7-33.7,11.1-36.3c0.6-0.2,1.4-0.2,2.3-0.2c0.6,0,1.2,0,1.8,0.1l9.9,0.8l1.5-9.8c9.9-66.7,55.1-111.6,112.5-111.6
	c57.4,0,102.5,44.9,112.5,111.6l1.5,9.8l9.9-0.8c1.5-0.1,3-0.1,4,0.2C419.4,159.3,424.8,176.2,420.6,192.9z"/>
<path id="TShirt" d="M402.9,316.2c-12.8,21.6-27.4,39.8-46.8,49.9c-40.2,20.6-74,37.2-74,37.2L207.7,367
	c-19.7-10.1-43.6-28.8-58-50.8c-60.5,23.6-95.5,79-95.5,128.1v100.6h449.7c0,0,0-49.4,0-100.6C503.7,395.9,462.3,340.3,402.9,316.2z
	"/>
<path id="lense-seft" class="st0" d="M256.8,149.4c-1.3-1.1-2.7-2-4.2-2.8c-3-1.6-6.3-2.3-9.5-3c-8-1.8-16.1-2.4-25.7-2.6
	c-2.7,0.2-6.9,0.3-11.1,0.7c-5.6,0.5-11.2,1.3-16.7,2.7c-6,1.6-9.7,5.4-11.1,11.5c-0.4,1.7-0.5,3.5-0.7,5.2
	c-0.4,3.5-0.5,6.9-0.1,10.4c0.6,6,1.4,11.9,2.8,17.8c1.1,4.5,2.7,8.7,5.3,12.6c2.3,3.5,5.4,5.9,9.5,6.9c2,0.5,4,1,6,1.3
	c10.2,1.5,20.4,0.9,30.4-1.7c4.9-1.3,9.4-3.4,13.2-7c2.8-2.7,5.1-5.9,7-9.2c3.6-6.2,6.3-12.7,7.9-19.6c1.3-5.4,1.8-10.9,0.9-16.4
	C260,153.5,258.9,151.1,256.8,149.4z"/>
<path id="lense-right" class="st0" d="M383.1,154.3c-0.6-1.6-1.4-3.2-2.2-4.8c-0.7-1.4-1.8-2.5-3.2-3.2c-1.5-0.7-3-1.4-4.6-1.9
	c-8.7-2.5-17.6-3.2-27.8-3.7c-2.6,0.1-6.4,0.2-10.2,0.5c-4.9,0.3-9.7,1-14.5,2c-4.3,0.9-8.6,1.9-12.6,3.5c-4.1,1.6-6.8,4.5-7.6,8.9
	c-0.3,1.8-0.5,3.6-0.6,5.4c-0.1,4.2,0.7,8.2,1.6,12.2c2,8.7,5.6,16.7,11.2,23.7c4.4,5.5,9.9,9.1,16.8,10.5c7,1.5,14,2.4,21.1,2.3
	c4.7,0,9.4-0.3,14-1.6c3.6-1,7.1-2.4,9.8-5.1c2.5-2.4,4.1-5.3,5.3-8.5c3-7.9,4.4-16.1,4.6-24.5c0.1-3.2-0.1-6.4-0.2-9.7
	C384,158.3,383.9,156.2,383.1,154.3z"/>
<g id="Glasses">
	<path d="M402.1,139.8c-0.1-0.8-0.4-1.3-1.2-1.4c-0.5-0.1-1-0.3-1.6-0.4c-7.6-1.2-15.2-2.4-22.8-2.9c-6.1-0.4-12.2-0.7-18.4-1
		c-11.8-0.5-23.6-0.3-35.3,1.2c-7.2,0.9-14.3,2.2-21.2,4.4c-3.5,1.1-6.9,2.4-10.4,3.5c-5.4,1.7-11,2.5-16.7,1.4
		c-3.4-0.6-6.8-1.6-10-2.7c-6-1.9-11.9-3.8-18.1-5c-12-2.2-24.1-3.2-35.4-3.1c-9.2,0-17.5,0.3-25.7,1.3c-6.8,0.8-13.5,1.7-20.2,2.6
		c-1.4,0.2-2.8,0.6-4.2,1c-0.8,0.2-1.2,0.7-1.3,1.5c-0.1,4-0.3,8-0.4,12c0,0.6,0.1,1.2,0.2,1.8c0.1,0.5,0.4,0.9,0.8,1.1
		c0.5,0.2,1,0.5,1.5,0.8c2.2,1.5,3.3,3.9,4.1,6.3c0.6,1.7,1,3.5,1.5,5.3c0.3,1.1,0.7,2.2,1,3.3c1.2,5.2,2.3,10.4,3.5,15.6
		c1.1,5,2.6,9.8,5,14.3c2.6,5.1,6.4,8.9,11.8,11.2c3.2,1.4,6.6,2.2,10.1,2.8c6.2,1,12.4,1.1,18.7,0.6c6.3-0.5,12.6-1.4,18.7-3.3
		c4.5-1.4,8.8-3.3,12.4-6.4c5.5-4.7,10-10.3,13.4-16.8c3.4-6.4,5.8-13.2,8-20.2c0.6-2,1.2-4,1.9-5.9c1.1-2.9,3.1-4.7,6.2-5.1
		c1-0.2,2-0.2,3-0.1c2.3,0.1,4.5,0.6,6,2.5c0.7,0.8,1.3,1.8,1.7,2.7c0.8,1.9,1.6,3.8,2.3,5.8c2.7,8.6,6.3,16.7,10.8,24.5
		c3.8,6.4,8.7,11.6,15.3,15.2c4.6,2.5,9.6,4.2,14.8,5.2c7.8,1.5,15.7,1.9,23.6,1.5c4.8-0.2,9.5-0.8,14.1-2.2c4.7-1.4,8.9-3.7,12-7.7
		c2-2.5,3.5-5.4,4.7-8.4c2.6-6.3,4.2-12.8,5.7-19.4c0.7-3.2,1.5-6.5,2.3-9.7c0.4-1.7,0.9-3.3,1.4-5c0.4-1.6,0.8-3.1,1.8-4.5
		c1-1.4,2-2.7,3.7-3.3c0.7-0.3,1.1-0.8,1.2-1.4c0.1-0.5,0.2-1.1,0.2-1.6c0-2.4,0-4.8-0.1-7.1C402.4,143.2,402.2,141.5,402.1,139.8
		 M259.5,172.6c-1.6,7-4.3,13.5-7.9,19.6c-2,3.4-4.2,6.5-7,9.2c-3.7,3.6-8.2,5.7-13.2,7c-10,2.6-20.1,3.3-30.4,1.7
		c-2-0.3-4-0.8-6-1.3c-4.1-1-7.1-3.4-9.5-6.9c-2.6-3.9-4.2-8.1-5.3-12.6c-1.4-5.9-2.2-11.8-2.8-17.8c-0.3-3.5-0.3-6.9,0.1-10.4
		c0.2-1.7,0.4-3.5,0.7-5.2c1.4-6,5.1-9.9,11.1-11.5c5.5-1.4,11.1-2.3,16.7-2.7c4.2-0.3,8.4-0.5,11.1-0.7c9.6,0.1,17.7,0.7,25.7,2.6
		c3.3,0.7,6.5,1.4,9.5,3c1.5,0.8,2.9,1.7,4.2,2.8c2.1,1.7,3.2,4.1,3.6,6.8C261.3,161.7,260.7,167.2,259.5,172.6 M384.2,170
		c-0.2,8.4-1.6,16.6-4.6,24.5c-1.2,3.2-2.9,6.1-5.3,8.5c-2.8,2.7-6.2,4.1-9.8,5.1c-4.6,1.2-9.3,1.5-14,1.6
		c-7.1,0.1-14.1-0.8-21.1-2.3c-6.9-1.5-12.4-5.1-16.8-10.5c-5.6-7-9.2-15-11.2-23.7c-0.9-4-1.7-8.1-1.6-12.2c0-1.8,0.2-3.6,0.6-5.4
		c0.8-4.4,3.5-7.3,7.6-8.9c4.1-1.6,8.3-2.7,12.6-3.5c4.8-1,9.6-1.7,14.5-2c3.8-0.2,7.6-0.4,10.2-0.5c10.2,0.5,19.1,1.2,27.8,3.7
		c1.6,0.5,3.1,1.2,4.6,1.9c1.4,0.7,2.5,1.8,3.2,3.2c0.8,1.6,1.6,3.1,2.2,4.8c0.7,1.9,0.9,4,1,6C384.1,163.5,384.2,166.8,384.2,170"
		/>
</g>
</svg>
